PathFileType	4	(X/Y/Z)	OpenSim_Sub11_EMGPreOp_Magnet.trc
DataRate	CameraRate	NumFrames	NumMarkers	Units	OrigDataRate	OrigDataStartFrame	OrigNumFrames
100	100	13	8	m	100	5150	5885
Frame#	Time	torso_imu_offset_imu	pelvis_imu_offset_imu	tibia_r_imu_offset_imu	femur_r_imu_offset_imu	tibia_l_imu_offset_imu	femur_l_imu_offset_imu	toes_r_imu_offset_imu	toes_l_imu_offset_imu
				X1	Y1	Z1	X2	Y2	Z2	X3	Y3	Z3	X4	Y4	Z4	X5	Y5	Z5	X6	Y6	Z6	X7	Y7	Z7	X8		Y8	Z8	

5150	51.49000000	-0.92460588	-0.22927619	0.06814196	-0.50074909	0.10447227	-0.67975439	-0.63885345	-0.49724161	-0.26623660	-0.58351793	-0.60576244	0.01400563	-0.45096169	0.72067828	0.03408978	-0.75203240	-0.10031244	0.29028955	-0.61626371	-0.40777378	-0.47343810	-0.81710070	0.22827737	-0.01926728
5151	51.50000000	-0.92813928	-0.22637977	0.07731893	-0.50366397	0.10238415	-0.68075334	-0.63861463	-0.49890585	-0.26697721	-0.58258877	-0.60598233	0.01288084	-0.46948564	0.70688850	0.03183619	-0.75205600	-0.10404711	0.29242030	-0.61938567	-0.41231834	-0.47467001	-0.81698137	0.21574043	-0.05106202
5152	51.51000000	-0.92702484	-0.22183527	0.06436190	-0.50277529	0.10276703	-0.67385705	-0.63512476	-0.49910817	-0.26693055	-0.58124751	-0.60636168	0.01589334	-0.48996315	0.69358887	0.04316722	-0.75289141	-0.10375109	0.30310999	-0.62070168	-0.41223121	-0.46465327	-0.81661081	0.20887268	-0.06918862
5153	51.52000000	-0.92341751	-0.22212400	0.06693664	-0.49396818	0.10647943	-0.67643897	-0.63523846	-0.50152738	-0.26636998	-0.56996881	-0.60486979	0.01208623	-0.50071757	0.68438556	0.04348382	-0.74606972	-0.10010747	0.29594364	-0.61358652	-0.40752850	-0.47059093	-0.80437302	0.20025620	-0.10118745
5154	51.53000000	-0.92578933	-0.22540445	0.07131679	-0.50184078	0.09719468	-0.67936069	-0.63220124	-0.50315540	-0.26833378	-0.57500776	-0.61299135	0.00927425	-0.52523956	0.66349136	0.05014451	-0.74725249	-0.10916461	0.29707229	-0.62147968	-0.41727211	-0.47289321	-0.80802430	0.17859742	-0.12861188
5155	51.54000000	-0.92342095	-0.22692135	0.07012586	-0.49807045	0.09849405	-0.68290184	-0.63192660	-0.50267712	-0.27445558	-0.57156291	-0.60882094	0.00544037	-0.54039282	0.65268195	0.05570817	-0.74646314	-0.10612330	0.29962791	-0.62069411	-0.41309926	-0.47411163	-0.80316143	0.16858306	-0.15211196
5156	51.55000000	-0.92965131	-0.22808189	0.07475886	-0.49997126	0.09355330	-0.67740703	-0.63194078	-0.50388751	-0.27199533	-0.57268843	-0.61458387	0.00869540	-0.55892297	0.63237637	0.07115623	-0.74833048	-0.11145980	0.30537719	-0.62256736	-0.41954023	-0.46970280	-0.79930895	0.14767909	-0.16829172
5157	51.56000000	-0.92851943	-0.22383203	0.07258573	-0.50125290	0.09636084	-0.68358515	-0.62534814	-0.51300724	-0.26785211	-0.57239136	-0.61386714	0.00511634	-0.57675663	0.61969792	0.08089528	-0.75006173	-0.10957587	0.30500700	-0.62886943	-0.42253906	-0.47253412	-0.79609355	0.13087485	-0.19235259
5158	51.57000000	-0.92514976	-0.22689976	0.07824319	-0.50198967	0.08916025	-0.68122027	-0.62402973	-0.51484999	-0.26915731	-0.57002363	-0.62104066	0.01237828	-0.59171870	0.59765994	0.09648392	-0.74727817	-0.11362029	0.30927482	-0.62838878	-0.42961811	-0.46709719	-0.78966114	0.10504145	-0.20722212
5159	51.58000000	-0.92300193	-0.22305740	0.08637510	-0.50074600	0.09402564	-0.67999289	-0.62605693	-0.50822390	-0.27114322	-0.56564270	-0.61803108	0.01119822	-0.60505005	0.58295916	0.10941946	-0.74716076	-0.10786942	0.31372602	-0.63115040	-0.42480892	-0.46700646	-0.78416938	0.08799057	-0.22442123
5160	51.59000000	-0.92782781	-0.22589663	0.07694912	-0.49607210	0.08009413	-0.67500901	-0.62345053	-0.51584739	-0.27080855	-0.55844944	-0.63009678	0.01772312	-0.61162658	0.55421309	0.12727339	-0.73643228	-0.11352853	0.32168589	-0.62520885	-0.43518834	-0.46072489	-0.77094649	0.05893351	-0.23550794
5161	51.60000000	-0.92454935	-0.22459517	0.07920007	-0.50158487	0.08038126	-0.67662661	-0.61675276	-0.51380479	-0.27015235	-0.56331234	-0.62919762	0.01984778	-0.63106536	0.53173942	0.13752745	-0.73977476	-0.10612025	0.32337714	-0.62832306	-0.43745094	-0.46195720	-0.76765868	0.03826963	-0.25236936
5162	51.61000000	-0.92069276	-0.22312582	0.08117281	-0.49947659	0.07925004	-0.68773978	-0.61835593	-0.51906482	-0.26792889	-0.56097217	-0.63237581	0.01052700	-0.64429934	0.51509262	0.13759264	-0.73801064	-0.10175921	0.31880304	-0.62869162	-0.43781016	-0.47262392	-0.76181022	0.01768807	-0.27678251
